<?xml version="1.0" encoding="UTF-8" standalone="no"?>
<!DOCTYPE svg PUBLIC "-//W3C//DTD SVG 1.1//EN"
 "http://www.w3.org/Graphics/SVG/1.1/DTD/svg11.dtd">
<!-- Generated by graphviz version 2.40.1 (20161225.0304)
 -->
<!-- Title: dependencies Pages: 1 -->
<svg width="1683pt" height="284pt"
 viewBox="0.00 0.00 1683.00 284.00" xmlns="http://www.w3.org/2000/svg" xmlns:xlink="http://www.w3.org/1999/xlink">
<g id="graph0" class="graph" transform="scale(1 1) rotate(0) translate(4 280)">
<title>dependencies</title>
<polygon fill="#ffffff" stroke="transparent" points="-4,4 -4,-280 1679,-280 1679,4 -4,4"/>
<text text-anchor="start" x="816.5091" y="-42.4" font-family="sans-serif" font-weight="bold" font-size="14.00" fill="#000000">Legend</text>
<polygon fill="#ffffb3" stroke="transparent" points="603.5,-10 603.5,-30 623.5,-30 623.5,-10 603.5,-10"/>
<text text-anchor="start" x="627.129" y="-15.4" font-family="sans-serif" font-size="14.00" fill="#000000"> &#160;Declarations</text>
<polygon fill="#8dd3c7" stroke="transparent" points="716.5,-10 716.5,-30 736.5,-30 736.5,-10 716.5,-10"/>
<text text-anchor="start" x="740.2251" y="-15.4" font-family="sans-serif" font-size="14.00" fill="#000000"> &#160;Module</text>
<polygon fill="#80b1d3" stroke="transparent" points="802.5,-10 802.5,-30 822.5,-30 822.5,-10 802.5,-10"/>
<text text-anchor="start" x="826.2812" y="-15.4" font-family="sans-serif" font-size="14.00" fill="#000000"> &#160;Bootstrap</text>
<polygon fill="#fdb462" stroke="transparent" points="899.5,-10 899.5,-30 919.5,-30 919.5,-10 899.5,-10"/>
<text text-anchor="start" x="923.1732" y="-15.4" font-family="sans-serif" font-size="14.00" fill="#000000"> &#160;Providers</text>
<polygon fill="#fb8072" stroke="transparent" points="995.5,-10 995.5,-30 1015.5,-30 1015.5,-10 995.5,-10"/>
<text text-anchor="start" x="1019.2258" y="-15.4" font-family="sans-serif" font-size="14.00" fill="#000000"> &#160;Exports</text>
<g id="clust1" class="cluster">
<title>cluster_AppModule</title>
<polygon fill="none" stroke="#000000" stroke-dasharray="1,5" points="8,-70 8,-268 1667,-268 1667,-70 8,-70"/>
</g>
<g id="clust2" class="cluster">
<title>cluster_AppModule_declarations</title>
<polygon fill="none" stroke="#000000" points="168,-78 168,-130 1659,-130 1659,-78 168,-78"/>
</g>
<g id="clust14" class="cluster">
<title>cluster_AppModule_imports</title>
<polygon fill="none" stroke="#000000" points="16,-78 16,-130 160,-130 160,-78 16,-78"/>
</g>
<g id="clust16" class="cluster">
<title>cluster_AppModule_bootstrap</title>
<polygon fill="none" stroke="#000000" points="785,-208 785,-260 909,-260 909,-208 785,-208"/>
</g>
<!-- AppComponent -->
<g id="node1" class="node">
<title>AppComponent</title>
<polygon fill="#ffffb3" stroke="#000000" points="1650.9399,-122 1545.0601,-122 1545.0601,-86 1650.9399,-86 1650.9399,-122"/>
<text text-anchor="middle" x="1598" y="-99.8" font-family="Times,serif" font-size="14.00" fill="#000000">AppComponent</text>
</g>
<!-- AppModule -->
<g id="node12" class="node">
<title>AppModule</title>
<polygon fill="#8dd3c7" stroke="#000000" points="888.6571,-187 885.6571,-191 864.6571,-191 861.6571,-187 805.3429,-187 805.3429,-151 888.6571,-151 888.6571,-187"/>
<text text-anchor="middle" x="847" y="-164.8" font-family="Times,serif" font-size="14.00" fill="#000000">AppModule</text>
</g>
<!-- AppComponent&#45;&gt;AppModule -->
<g id="edge1" class="edge">
<title>AppComponent&#45;&gt;AppModule</title>
<path fill="none" stroke="#000000" d="M1598,-122.2479C1598,-145.0179 1598,-181 1598,-181 1598,-181 898.7161,-181 898.7161,-181"/>
<polygon fill="#000000" stroke="#000000" points="898.7162,-177.5001 888.7161,-181 898.7161,-184.5001 898.7162,-177.5001"/>
</g>
<!-- CartComponent -->
<g id="node2" class="node">
<title>CartComponent</title>
<polygon fill="#ffffb3" stroke="#000000" points="1527.9357,-122 1422.0643,-122 1422.0643,-86 1527.9357,-86 1527.9357,-122"/>
<text text-anchor="middle" x="1475" y="-99.8" font-family="Times,serif" font-size="14.00" fill="#000000">CartComponent</text>
</g>
<!-- CartComponent&#45;&gt;AppModule -->
<g id="edge2" class="edge">
<title>CartComponent&#45;&gt;AppModule</title>
<path fill="none" stroke="#000000" d="M1475,-122.2843C1475,-143.3211 1475,-175 1475,-175 1475,-175 898.6912,-175 898.6912,-175"/>
<polygon fill="#000000" stroke="#000000" points="898.6912,-171.5001 888.6912,-175 898.6911,-178.5001 898.6912,-171.5001"/>
</g>
<!-- FooterComponent -->
<g id="node3" class="node">
<title>FooterComponent</title>
<polygon fill="#ffffb3" stroke="#000000" points="1403.8809,-122 1286.1191,-122 1286.1191,-86 1403.8809,-86 1403.8809,-122"/>
<text text-anchor="middle" x="1345" y="-99.8" font-family="Times,serif" font-size="14.00" fill="#000000">FooterComponent</text>
</g>
<!-- FooterComponent&#45;&gt;AppModule -->
<g id="edge3" class="edge">
<title>FooterComponent&#45;&gt;AppModule</title>
<path fill="none" stroke="#000000" d="M1345,-122.1061C1345,-141.3391 1345,-169 1345,-169 1345,-169 899.03,-169 899.03,-169"/>
<polygon fill="#000000" stroke="#000000" points="899.03,-165.5001 889.03,-169 899.03,-172.5001 899.03,-165.5001"/>
</g>
<!-- ItemComponent -->
<g id="node4" class="node">
<title>ItemComponent</title>
<polygon fill="#ffffb3" stroke="#000000" points="1268.4888,-122 1161.5112,-122 1161.5112,-86 1268.4888,-86 1268.4888,-122"/>
<text text-anchor="middle" x="1215" y="-99.8" font-family="Times,serif" font-size="14.00" fill="#000000">ItemComponent</text>
</g>
<!-- ItemComponent&#45;&gt;AppModule -->
<g id="edge4" class="edge">
<title>ItemComponent&#45;&gt;AppModule</title>
<path fill="none" stroke="#000000" d="M1215,-122.0225C1215,-139.3734 1215,-163 1215,-163 1215,-163 898.856,-163 898.856,-163"/>
<polygon fill="#000000" stroke="#000000" points="898.856,-159.5001 888.856,-163 898.856,-166.5001 898.856,-159.5001"/>
</g>
<!-- LandingPageComponent -->
<g id="node5" class="node">
<title>LandingPageComponent</title>
<polygon fill="#ffffb3" stroke="#000000" points="1143.7021,-122 988.2979,-122 988.2979,-86 1143.7021,-86 1143.7021,-122"/>
<text text-anchor="middle" x="1066" y="-99.8" font-family="Times,serif" font-size="14.00" fill="#000000">LandingPageComponent</text>
</g>
<!-- LandingPageComponent&#45;&gt;AppModule -->
<g id="edge5" class="edge">
<title>LandingPageComponent&#45;&gt;AppModule</title>
<path fill="none" stroke="#000000" d="M1066,-122.2396C1066,-137.5706 1066,-157 1066,-157 1066,-157 898.7077,-157 898.7077,-157"/>
<polygon fill="#000000" stroke="#000000" points="898.7077,-153.5001 888.7077,-157 898.7077,-160.5001 898.7077,-153.5001"/>
</g>
<!-- LearnComponent -->
<g id="node6" class="node">
<title>LearnComponent</title>
<polygon fill="#ffffb3" stroke="#000000" points="969.9748,-122 856.0252,-122 856.0252,-86 969.9748,-86 969.9748,-122"/>
<text text-anchor="middle" x="913" y="-99.8" font-family="Times,serif" font-size="14.00" fill="#000000">LearnComponent</text>
</g>
<!-- LearnComponent&#45;&gt;AppModule -->
<g id="edge6" class="edge">
<title>LearnComponent&#45;&gt;AppModule</title>
<path fill="none" stroke="#000000" d="M872.4204,-122.1061C872.4204,-122.1061 872.4204,-140.991 872.4204,-140.991"/>
<polygon fill="#000000" stroke="#000000" points="868.9205,-140.9909 872.4204,-150.991 875.9205,-140.991 868.9205,-140.9909"/>
</g>
<!-- LoginComponent -->
<g id="node7" class="node">
<title>LoginComponent</title>
<polygon fill="#ffffb3" stroke="#000000" points="838.2758,-122 723.7242,-122 723.7242,-86 838.2758,-86 838.2758,-122"/>
<text text-anchor="middle" x="781" y="-99.8" font-family="Times,serif" font-size="14.00" fill="#000000">LoginComponent</text>
</g>
<!-- LoginComponent&#45;&gt;AppModule -->
<g id="edge7" class="edge">
<title>LoginComponent&#45;&gt;AppModule</title>
<path fill="none" stroke="#000000" d="M821.7798,-122.1061C821.7798,-122.1061 821.7798,-140.991 821.7798,-140.991"/>
<polygon fill="#000000" stroke="#000000" points="818.2799,-140.9909 821.7798,-150.991 825.2799,-140.991 818.2799,-140.9909"/>
</g>
<!-- NavbarComponent -->
<g id="node8" class="node">
<title>NavbarComponent</title>
<polygon fill="#ffffb3" stroke="#000000" points="705.0297,-122 582.9703,-122 582.9703,-86 705.0297,-86 705.0297,-122"/>
<text text-anchor="middle" x="644" y="-99.8" font-family="Times,serif" font-size="14.00" fill="#000000">NavbarComponent</text>
</g>
<!-- NavbarComponent&#45;&gt;AppModule -->
<g id="edge8" class="edge">
<title>NavbarComponent&#45;&gt;AppModule</title>
<path fill="none" stroke="#000000" d="M644,-122.2396C644,-137.5706 644,-157 644,-157 644,-157 794.9383,-157 794.9383,-157"/>
<polygon fill="#000000" stroke="#000000" points="794.9383,-160.5001 804.9383,-157 794.9382,-153.5001 794.9383,-160.5001"/>
</g>
<!-- QuizComponent -->
<g id="node9" class="node">
<title>QuizComponent</title>
<polygon fill="#ffffb3" stroke="#000000" points="564.0452,-122 455.9548,-122 455.9548,-86 564.0452,-86 564.0452,-122"/>
<text text-anchor="middle" x="510" y="-99.8" font-family="Times,serif" font-size="14.00" fill="#000000">QuizComponent</text>
</g>
<!-- QuizComponent&#45;&gt;AppModule -->
<g id="edge9" class="edge">
<title>QuizComponent&#45;&gt;AppModule</title>
<path fill="none" stroke="#000000" d="M510,-122.0225C510,-139.3734 510,-163 510,-163 510,-163 795.3392,-163 795.3392,-163"/>
<polygon fill="#000000" stroke="#000000" points="795.3392,-166.5001 805.3392,-163 795.3392,-159.5001 795.3392,-166.5001"/>
</g>
<!-- SignupComponent -->
<g id="node10" class="node">
<title>SignupComponent</title>
<polygon fill="#ffffb3" stroke="#000000" points="437.5056,-122 316.4944,-122 316.4944,-86 437.5056,-86 437.5056,-122"/>
<text text-anchor="middle" x="377" y="-99.8" font-family="Times,serif" font-size="14.00" fill="#000000">SignupComponent</text>
</g>
<!-- SignupComponent&#45;&gt;AppModule -->
<g id="edge10" class="edge">
<title>SignupComponent&#45;&gt;AppModule</title>
<path fill="none" stroke="#000000" d="M377,-122.1061C377,-141.3391 377,-169 377,-169 377,-169 795.2906,-169 795.2906,-169"/>
<polygon fill="#000000" stroke="#000000" points="795.2907,-172.5001 805.2906,-169 795.2906,-165.5001 795.2907,-172.5001"/>
</g>
<!-- ThanksComponent -->
<g id="node11" class="node">
<title>ThanksComponent</title>
<polygon fill="#ffffb3" stroke="#000000" points="298.045,-122 175.955,-122 175.955,-86 298.045,-86 298.045,-122"/>
<text text-anchor="middle" x="237" y="-99.8" font-family="Times,serif" font-size="14.00" fill="#000000">ThanksComponent</text>
</g>
<!-- ThanksComponent&#45;&gt;AppModule -->
<g id="edge11" class="edge">
<title>ThanksComponent&#45;&gt;AppModule</title>
<path fill="none" stroke="#000000" d="M237,-122.2843C237,-143.3211 237,-175 237,-175 237,-175 795.0722,-175 795.0722,-175"/>
<polygon fill="#000000" stroke="#000000" points="795.0723,-178.5001 805.0722,-175 795.0722,-171.5001 795.0723,-178.5001"/>
</g>
<!-- AppComponent  -->
<g id="node14" class="node">
<title>AppComponent </title>
<polygon fill="#80b1d3" stroke="#000000" points="901.439,-252 792.561,-252 792.561,-216 901.439,-216 901.439,-252"/>
<text text-anchor="middle" x="847" y="-229.8" font-family="Times,serif" font-size="14.00" fill="#000000">AppComponent </text>
</g>
<!-- AppModule&#45;&gt;AppComponent  -->
<g id="edge13" class="edge">
<title>AppModule&#45;&gt;AppComponent </title>
<path fill="none" stroke="#000000" stroke-dasharray="1,5" d="M847,-187.1061C847,-187.1061 847,-205.991 847,-205.991"/>
<polygon fill="#000000" stroke="#000000" points="843.5001,-205.9909 847,-215.991 850.5001,-205.991 843.5001,-205.9909"/>
</g>
<!-- AppRoutingModule -->
<g id="node13" class="node">
<title>AppRoutingModule</title>
<polygon fill="#8dd3c7" stroke="#000000" points="152.2744,-122 149.2744,-126 128.2744,-126 125.2744,-122 23.7256,-122 23.7256,-86 152.2744,-86 152.2744,-122"/>
<text text-anchor="middle" x="88" y="-99.8" font-family="Times,serif" font-size="14.00" fill="#000000">AppRoutingModule</text>
</g>
<!-- AppRoutingModule&#45;&gt;AppModule -->
<g id="edge12" class="edge">
<title>AppRoutingModule&#45;&gt;AppModule</title>
<path fill="none" stroke="#000000" d="M88,-122.2479C88,-145.0179 88,-181 88,-181 88,-181 795.1117,-181 795.1117,-181"/>
<polygon fill="#000000" stroke="#000000" points="795.1118,-184.5001 805.1117,-181 795.1117,-177.5001 795.1118,-184.5001"/>
</g>
</g>
</svg>
